<svg width="3" height="3" viewBox="0 0 3 3" fill="none" xmlns="http://www.w3.org/2000/svg">
<path d="M2.14459 0.924716C2.11092 0.857376 2.11092 0.790036 2.07725 0.722696C2.04358 0.655356 1.97624 0.588016 1.94257 0.554346C1.87523 0.487006 1.80789 0.453335 1.74055 0.419665C1.67321 0.385995 1.5722 0.385995 1.47119 0.385995C1.33651 0.385995 1.20183 0.419665 1.10082 0.487006C0.999808 0.520676 0.932468 0.621686 0.865127 0.722696C0.797787 0.790036 0.764117 0.924716 0.730447 1.02573C0.696777 1.16041 0.663107 1.29509 0.663107 1.3961C0.663107 1.53078 0.696777 1.66546 0.730447 1.76647C0.730447 1.90115 0.797787 2.00216 0.865127 2.10317C0.932468 2.20418 0.999808 2.27152 1.10082 2.33886C1.20183 2.4062 1.33651 2.43987 1.47119 2.43987C1.5722 2.43987 1.67321 2.4062 1.74055 2.37253C1.84156 2.33886 1.9089 2.27152 1.97624 2.23785C2.00991 2.17051 2.07725 2.0695 2.11092 2.00216C2.14459 1.90115 2.14459 1.83381 2.14459 1.7328H2.61597C2.61597 1.90115 2.5823 2.03583 2.51496 2.17051C2.44762 2.30519 2.38028 2.4062 2.27927 2.50721C2.17826 2.60822 2.04358 2.67556 1.9089 2.7429C1.77422 2.77657 1.63954 2.81024 1.47119 2.81024C1.26917 2.81024 1.10082 2.77657 0.932468 2.70923C0.797787 2.60822 0.663107 2.50721 0.528427 2.4062C0.427417 2.27152 0.360077 2.13684 0.292737 1.96849C0.225397 1.80014 0.191727 1.59812 0.191727 1.3961C0.191727 1.22775 0.225397 1.02573 0.292737 0.857376C0.360077 0.689026 0.427417 0.554346 0.528427 0.419665C0.663107 0.284985 0.797787 0.183975 0.932468 0.116635C1.10082 0.049295 1.26917 0.015625 1.47119 0.015625C1.63954 0.015625 1.77422 0.049295 1.9089 0.0829651C2.04358 0.116635 2.14459 0.183975 2.2456 0.251315C2.34661 0.318655 2.41395 0.419665 2.48129 0.554346C2.54863 0.655356 2.5823 0.790036 2.61597 0.924716H2.14459Z" fill="#F7E4AF"/>
</svg>
