<svg width="2" height="2" viewBox="0 0 2 2" fill="none" xmlns="http://www.w3.org/2000/svg">
<path d="M0.922139 0.248895C0.885102 0.248895 0.848065 0.248895 0.811028 0.248895C0.773991 0.248895 0.740321 0.248895 0.706651 0.282565C0.672981 0.282565 0.642678 0.282565 0.615742 0.316235C0.588806 0.349905 0.56187 0.383575 0.538301 0.417245C0.504631 0.484585 0.487796 0.551925 0.491163 0.619265C0.491163 0.652936 0.504631 0.720276 0.531567 0.753946C0.558503 0.821286 0.592173 0.854956 0.639311 0.888626C0.683082 0.955966 0.733587 0.989636 0.787459 1.02331C0.841331 1.05698 0.89857 1.05698 0.959176 1.09065C1.01978 1.09065 1.07702 1.09065 1.13089 1.09065C1.18813 1.09065 1.23864 1.05698 1.29924 1.02331C1.33291 1.02331 1.36658 0.955966 1.40025 0.888626C1.43392 0.854956 1.43392 0.821286 1.46759 0.753946C1.46759 0.720276 1.43392 0.686606 1.43392 0.652936C1.43392 0.619265 1.40025 0.585595 1.36658 0.551925C1.33291 0.518255 1.29924 0.484585 1.26557 0.450915L1.36658 0.248895C1.43392 0.282565 1.50126 0.349905 1.53493 0.383575C1.5686 0.450915 1.60227 0.518255 1.63594 0.585595C1.63594 0.652936 1.63594 0.720276 1.63594 0.787616C1.63594 0.854956 1.60227 0.922296 1.5686 0.989636C1.53493 1.09065 1.46759 1.15799 1.40025 1.19166C1.33291 1.259 1.25547 1.29267 1.17466 1.29267C1.09386 1.32634 1.01305 1.32634 0.925506 1.29267C0.837964 1.29267 0.753789 1.259 0.672981 1.22533C0.592173 1.15799 0.521466 1.12432 0.464226 1.05698C0.40362 0.989636 0.35985 0.922296 0.332914 0.854956C0.302611 0.753946 0.292509 0.686606 0.295876 0.585595C0.299243 0.518255 0.326179 0.417245 0.373317 0.349905C0.406988 0.282565 0.450758 0.215225 0.497897 0.181555C0.545035 0.114215 0.598907 0.080545 0.656146 0.080545C0.713385 0.046875 0.773991 0.046875 0.834597 0.046875C0.89857 0.046875 0.959176 0.046875 1.02652 0.080545L0.922139 0.248895Z" fill="#F7E4AF"/>
</svg>
