<svg width="3" height="2" viewBox="0 0 3 2" fill="none" xmlns="http://www.w3.org/2000/svg">
<path d="M1.24139 1.99543L0.871017 1.59139C0.803677 1.52405 0.736336 1.45671 0.702666 1.38937C0.668996 1.32203 0.668996 1.22102 0.702666 1.15368C0.702666 1.08634 0.736336 1.019 0.770007 0.951657C0.803677 0.850647 0.871017 0.783307 0.904687 0.749637C0.972027 0.682297 1.03937 0.614957 1.10671 0.581287C1.17405 0.547617 1.27506 0.513947 1.3424 0.513947C1.40974 0.480277 1.47708 0.513947 1.57809 0.547617C1.64543 0.547617 1.71277 0.614957 1.78011 0.682297L2.15048 1.05267L1.24139 1.99543ZM1.88112 1.019L1.71277 0.884317C1.64543 0.816977 1.57809 0.783307 1.54442 0.749637C1.47708 0.715967 1.40974 0.715967 1.37607 0.715967C1.30873 0.715967 1.27506 0.749637 1.20772 0.783307C1.17405 0.816977 1.14038 0.850647 1.07304 0.884317C1.03937 0.951657 1.0057 0.985327 0.972027 1.05267C0.938357 1.08634 0.904687 1.12001 0.904687 1.18735C0.904687 1.25469 0.904687 1.28836 0.938357 1.3557C0.938357 1.42304 1.0057 1.45671 1.03937 1.52405L1.20772 1.6924L1.88112 1.019Z" fill="#F7E4AF"/>
</svg>
