<svg width="3" height="3" viewBox="0 0 3 3" fill="none" xmlns="http://www.w3.org/2000/svg">
<path d="M2.16735 2.12191L2.03267 2.12865L1.96533 1.97713C1.93166 2.04784 1.86432 2.10171 1.79698 2.13201C1.72964 2.16232 1.6623 2.17915 1.59496 2.18252C1.49395 2.18925 1.39293 2.17578 1.32559 2.14211C1.25825 2.11181 1.19091 2.06467 1.12357 2.00743C1.05623 1.9502 1.02256 1.87949 0.988895 1.79868C0.955225 1.71787 0.955225 1.63033 0.921555 1.53942C0.921555 1.44851 0.955225 1.36097 0.955225 1.27679C0.988895 1.19262 1.02256 1.11855 1.0899 1.05457C1.12357 0.990599 1.19091 0.936727 1.25825 0.896323C1.32559 0.855919 1.42661 0.83235 1.52762 0.828983C1.59496 0.825616 1.6623 0.83235 1.72964 0.845818C1.79698 0.862653 1.83065 0.886222 1.89799 0.919892C1.96533 0.953562 1.999 0.997333 2.03267 1.05121C2.06634 1.10508 2.10001 1.16905 2.10001 1.23976L1.86432 1.25323C1.86432 1.21282 1.86432 1.17578 1.83065 1.14211C1.83065 1.10844 1.79698 1.08488 1.76331 1.06467C1.72964 1.04447 1.69597 1.031 1.6623 1.0209C1.62863 1.0108 1.56129 1.00743 1.52762 1.0108C1.46028 1.01417 1.39293 1.031 1.35926 1.06131C1.32559 1.09161 1.25825 1.13201 1.22458 1.17915C1.22458 1.22629 1.19091 1.28016 1.19091 1.34077C1.15724 1.40137 1.15724 1.46198 1.15724 1.52259C1.15724 1.58319 1.19091 1.6438 1.19091 1.7044C1.22458 1.76164 1.25825 1.81552 1.29192 1.85929C1.32559 1.90306 1.35926 1.94009 1.39293 1.96366C1.46028 1.98723 1.52762 2.0007 1.59496 1.99397C1.62863 1.9906 1.69597 1.9805 1.72964 1.96366C1.79698 1.94346 1.83065 1.91989 1.86432 1.88622C1.86432 1.85255 1.89799 1.81552 1.89799 1.76838C1.93166 1.72124 1.93166 1.6741 1.93166 1.61686L1.59496 1.63706L1.56129 1.46535L2.13368 1.43504L2.16735 2.12191Z" fill="#F7E4AF"/>
</svg>
