<svg width="2" height="2" viewBox="0 0 2 2" fill="none" xmlns="http://www.w3.org/2000/svg">
<path d="M1.81039 1.28114C1.77672 1.34848 1.74305 1.44949 1.67571 1.48316C1.60837 1.5505 1.54103 1.58417 1.44002 1.58417C1.37268 1.61784 1.27167 1.61784 1.20433 1.61784C1.10332 1.61784 1.03598 1.58417 0.93497 1.5505C0.86763 1.51683 0.76662 1.44949 0.73295 1.38215C0.66561 1.31481 0.59827 1.24747 0.5646 1.18013C0.53093 1.11279 0.53093 1.04545 0.53093 0.94444C0.53093 0.8771 0.5646 0.776089 0.59827 0.675079C0.63194 0.607739 0.69928 0.540399 0.76662 0.473059C0.83396 0.405719 0.9013 0.372049 0.96864 0.372049C1.03598 0.338379 1.13699 0.338379 1.238 0.338379C1.30534 0.372049 1.40635 0.372049 1.47369 0.439389C1.5747 0.473059 1.64204 0.506729 1.70938 0.574069C1.74305 0.641409 1.81039 0.708749 1.84406 0.776089C1.87773 0.843429 1.87773 0.94444 1.87773 1.01178C1.87773 1.11279 1.87773 1.18013 1.81039 1.28114ZM1.64204 1.18013C1.67571 1.14646 1.70938 1.07912 1.70938 1.01178C1.70938 0.94444 1.67571 0.91077 1.64204 0.843429C1.60837 0.809759 1.5747 0.776089 1.54103 0.742419C1.47369 0.675079 1.44002 0.641409 1.37268 0.641409C1.33901 0.607739 1.27167 0.574069 1.20433 0.574069C1.13699 0.540399 1.10332 0.540399 1.03598 0.574069C0.96864 0.574069 0.93497 0.607739 0.86763 0.607739C0.83396 0.641409 0.80029 0.708749 0.76662 0.776089C0.73295 0.843429 0.73295 0.8771 0.73295 0.94444C0.73295 1.01178 0.73295 1.04545 0.76662 1.11279C0.80029 1.14646 0.83396 1.2138 0.86763 1.24747C0.93497 1.28114 0.96864 1.31481 1.03598 1.34848C1.10332 1.34848 1.13699 1.38215 1.20433 1.38215C1.27167 1.41582 1.33901 1.41582 1.37268 1.41582C1.44002 1.38215 1.50736 1.38215 1.54103 1.34848C1.5747 1.31481 1.64204 1.24747 1.64204 1.18013Z" fill="#F7E4AF"/>
</svg>
