<svg width="2" height="2" viewBox="0 0 2 2" fill="none" xmlns="http://www.w3.org/2000/svg">
<path d="M0.339942 0.889601C0.346676 0.788591 0.370245 0.687581 0.414016 0.620241C0.45442 0.552901 0.508293 0.485561 0.575633 0.418221C0.639606 0.384551 0.717047 0.350881 0.801222 0.317211C0.885397 0.317211 0.972939 0.283541 1.06385 0.317211C1.15812 0.317211 1.2423 0.317211 1.32311 0.350881C1.40392 0.384551 1.47126 0.451891 1.53186 0.485561C1.5891 0.552901 1.63287 0.620241 1.66317 0.721251C1.69348 0.788591 1.70358 0.889601 1.69684 0.956941C1.69011 1.05795 1.66654 1.15896 1.62614 1.2263C1.58573 1.29364 1.53186 1.36098 1.46789 1.39465C1.40392 1.46199 1.32647 1.49566 1.2423 1.52933C1.15812 1.52933 1.07058 1.563 0.976306 1.52933C0.885397 1.52933 0.797855 1.52933 0.717047 1.49566C0.636239 1.46199 0.568899 1.39465 0.508293 1.32731C0.451053 1.29364 0.407282 1.2263 0.373612 1.12529C0.346676 1.05795 0.333208 0.956941 0.339942 0.889601ZM0.525128 0.889601C0.521761 0.956941 0.528495 1.02428 0.555431 1.05795C0.579 1.12529 0.61267 1.15896 0.659808 1.19263C0.703579 1.2263 0.754084 1.25997 0.81469 1.29364C0.871929 1.29364 0.932535 1.29364 0.993141 1.32731C1.05375 1.32731 1.11435 1.32731 1.17496 1.29364C1.23557 1.29364 1.28944 1.25997 1.33994 1.25997C1.38708 1.2263 1.42748 1.19263 1.46115 1.12529C1.49146 1.09162 1.51166 1.02428 1.51503 0.956941C1.51839 0.889601 1.51166 0.822261 1.48472 0.788591C1.46115 0.721251 1.42748 0.687581 1.38035 0.653911C1.33658 0.620241 1.28607 0.586571 1.22546 0.552901C1.16823 0.552901 1.10762 0.552901 1.04701 0.519231C0.986407 0.519231 0.925801 0.519231 0.865195 0.552901C0.804589 0.552901 0.750717 0.586571 0.700212 0.586571C0.653074 0.620241 0.61267 0.653911 0.579 0.721251C0.548697 0.754921 0.531862 0.822261 0.525128 0.889601Z" fill="#F7E4AF"/>
</svg>
