<svg width="2" height="2" viewBox="0 0 2 2" fill="none" xmlns="http://www.w3.org/2000/svg">
<path d="M0.353024 0.151067C0.454034 0.100562 0.521374 0.0668926 0.622385 0.0567916C0.689725 0.0466905 0.790735 0.0534245 0.858075 0.0769935C0.925415 0.100563 0.992755 0.140967 1.0601 0.194839C1.12744 0.248711 1.19478 0.316051 1.22845 0.393492C1.29579 0.470933 1.32946 0.555108 1.36313 0.639283C1.36313 0.723458 1.36313 0.821101 1.36313 0.888441C1.36313 0.955781 1.32946 1.05679 1.26212 1.12413C1.22845 1.19147 1.16111 1.25881 1.09377 1.29248C0.992755 1.35982 0.925415 1.39349 0.824405 1.39349C0.757065 1.39349 0.656055 1.39349 0.588714 1.39349C0.521374 1.35982 0.454034 1.32615 0.386694 1.25881C0.319354 1.19147 0.252014 1.12413 0.184674 1.05679C0.151004 0.989451 0.117334 0.888441 0.0836639 0.821101C0.0836639 0.733559 0.0836639 0.649384 0.0836639 0.568576C0.0836639 0.487768 0.117334 0.410327 0.151004 0.33962C0.218344 0.262179 0.285684 0.201573 0.353024 0.151067ZM0.454034 0.30595C0.386694 0.342987 0.353024 0.386758 0.319354 0.437263C0.285684 0.487768 0.285684 0.54164 0.285684 0.598879C0.285684 0.656118 0.285684 0.713357 0.319354 0.787431C0.319354 0.821101 0.353024 0.888441 0.386694 0.922111C0.420364 0.989451 0.454034 1.02312 0.521374 1.09046C0.555044 1.12413 0.588714 1.1578 0.656055 1.19147C0.689725 1.19147 0.757065 1.22514 0.824405 1.19147C0.891745 1.19147 0.925415 1.19147 0.992755 1.1578C1.0601 1.12413 1.09377 1.05679 1.12744 1.02312C1.16111 0.955781 1.16111 0.922111 1.16111 0.854771C1.16111 0.787431 1.16111 0.736926 1.12744 0.679687C1.12744 0.622448 1.09377 0.565209 1.0601 0.514704C1.02643 0.460832 0.992755 0.413694 0.959085 0.37329C0.891745 0.332886 0.858075 0.299216 0.790735 0.275647C0.757065 0.252078 0.689725 0.241977 0.622385 0.245344C0.588714 0.248711 0.521374 0.268913 0.454034 0.30595Z" fill="#F7E4AF"/>
</svg>
