<svg width="2" height="2" viewBox="0 0 2 2" fill="none" xmlns="http://www.w3.org/2000/svg">
<path d="M0.945669 0.057244C1.04668 0.033675 1.11402 0.030308 1.21503 0.047143C1.28237 0.063978 1.34971 0.097648 1.41705 0.144786C1.48439 0.191924 1.55173 0.25253 1.5854 0.326604C1.65274 0.400678 1.68641 0.481486 1.72008 0.572396C1.72008 0.663305 1.72008 0.750847 1.72008 0.838389C1.72008 0.925931 1.68641 1.00337 1.65274 1.07745C1.61907 1.15152 1.5854 1.21213 1.51806 1.266C1.45072 1.31987 1.34971 1.35691 1.2487 1.38048C1.18136 1.40405 1.08035 1.40741 0.979339 1.39058C0.911999 1.37374 0.844659 1.34344 0.777319 1.2963C0.709979 1.24916 0.642639 1.18856 0.608969 1.11448C0.541629 1.04041 0.507959 0.959601 0.507959 0.868692C0.474289 0.777783 0.474289 0.690241 0.474289 0.602698C0.474289 0.515156 0.507959 0.437715 0.541629 0.363641C0.575299 0.289567 0.642639 0.228961 0.709979 0.175089C0.777319 0.11785 0.844659 0.080813 0.945669 0.057244ZM0.979339 0.239062C0.911999 0.255897 0.844659 0.282833 0.810989 0.323237C0.777319 0.363641 0.743649 0.407412 0.709979 0.461284C0.709979 0.515156 0.676309 0.572395 0.676309 0.633002C0.676309 0.693608 0.709979 0.754214 0.709979 0.81482C0.709979 0.875426 0.743649 0.932665 0.777319 0.986537C0.810989 1.04041 0.844659 1.08755 0.878329 1.12458C0.911999 1.16162 0.979339 1.18856 1.01301 1.20539C1.08035 1.22223 1.14769 1.21886 1.21503 1.20203C1.28237 1.18519 1.31604 1.15825 1.38338 1.11785C1.41705 1.07745 1.45072 1.03368 1.48439 0.979803C1.48439 0.925931 1.48439 0.868692 1.48439 0.808086C1.48439 0.74748 1.48439 0.686874 1.48439 0.626268C1.45072 0.565662 1.45072 0.508422 1.41705 0.45455C1.38338 0.400678 1.34971 0.35354 1.31604 0.316503C1.28237 0.279466 1.21503 0.25253 1.18136 0.235695C1.11402 0.222227 1.04668 0.222227 0.979339 0.239062Z" fill="#F7E4AF"/>
</svg>
