<svg width="3" height="3" viewBox="0 0 3 3" fill="none" xmlns="http://www.w3.org/2000/svg">
<path d="M2.01982 2.41412L1.91881 2.51513L1.75046 2.31647C1.68312 2.33331 1.64945 2.34341 1.58211 2.34678C1.54844 2.35014 1.4811 2.34341 1.44743 2.33331C1.34642 2.31311 1.24541 2.27944 1.17807 2.22893C1.11073 2.17843 1.07706 2.11782 1.00972 2.04711C0.976053 1.97641 0.942383 1.89897 0.942383 1.81142C0.942383 1.72388 0.942383 1.63634 0.942383 1.54543C0.976053 1.45452 1.00972 1.37371 1.04339 1.29627C1.11073 1.2222 1.1444 1.15823 1.21174 1.10772C1.27908 1.05722 1.34642 1.02355 1.44743 0.999976C1.51477 0.979774 1.61578 0.979774 1.68312 0.996609C1.78413 1.01681 1.88514 1.05048 1.95248 1.10099C2.01982 1.15149 2.05349 1.2121 2.12083 1.2828C2.1545 1.35351 2.18817 1.43095 2.18817 1.51849C2.18817 1.60604 2.18817 1.69358 2.18817 1.78449C2.1545 1.82826 2.1545 1.87203 2.12083 1.9158C2.12083 1.95957 2.08716 1.99998 2.08716 2.04038C2.05349 2.08078 2.01982 2.11782 1.98615 2.15149C1.98615 2.18516 1.95248 2.21546 1.88514 2.23903L2.01982 2.41412ZM1.51477 2.01008L1.64945 1.90907L1.78413 2.07405C1.8178 2.03365 1.85147 1.98314 1.88514 1.9259C1.91881 1.86866 1.95248 1.80469 1.95248 1.74072C1.95248 1.68011 1.95248 1.6195 1.95248 1.5589C1.95248 1.49829 1.95248 1.44105 1.91881 1.39055C1.91881 1.34004 1.88514 1.29291 1.8178 1.25587C1.78413 1.21883 1.71679 1.1919 1.64945 1.17843C1.58211 1.16496 1.54844 1.16833 1.4811 1.18516C1.41376 1.202 1.38009 1.2323 1.34642 1.26934C1.27908 1.30974 1.24541 1.35688 1.24541 1.41075C1.21174 1.46462 1.17807 1.52523 1.17807 1.58583C1.17807 1.64644 1.1444 1.70705 1.17807 1.76765C1.17807 1.82826 1.17807 1.8855 1.21174 1.936C1.21174 1.98651 1.24541 2.03365 1.31275 2.07068C1.34642 2.10772 1.41376 2.13466 1.4811 2.14812C1.4811 2.15149 1.51477 2.15486 1.54844 2.15486C1.58211 2.15486 1.58211 2.15149 1.61578 2.14476L1.51477 2.01008Z" fill="#F7E4AF"/>
</svg>
