<svg width="2" height="2" viewBox="0 0 2 2" fill="none" xmlns="http://www.w3.org/2000/svg">
<path d="M0.467648 1.7832L0.191554 1.24448C0.127581 1.1098 0.107379 1.00879 0.130948 0.907776C0.154517 0.806766 0.215123 0.739426 0.316133 0.705755C0.370005 0.672085 0.42051 0.672085 0.464281 0.638415C0.508052 0.638415 0.548456 0.672085 0.582126 0.672085C0.615796 0.672085 0.642732 0.672085 0.662934 0.705755C0.683136 0.705755 0.696604 0.739426 0.706705 0.739426H0.710072C0.703338 0.739426 0.699971 0.705755 0.699971 0.672085C0.699971 0.672085 0.703338 0.638415 0.713439 0.604745C0.72354 0.571075 0.740375 0.537405 0.767311 0.537405C0.79088 0.503735 0.827917 0.470065 0.871688 0.436395C0.939029 0.402725 0.999635 0.369055 1.05014 0.335385C1.10064 0.301715 1.13431 0.268045 1.14442 0.234375L1.25216 0.436395C1.23532 0.470065 1.21176 0.503735 1.18145 0.503735C1.15115 0.537405 1.12421 0.537405 1.09391 0.571075C1.04004 0.604745 0.996268 0.604745 0.962597 0.638415C0.928927 0.672085 0.901991 0.705755 0.885156 0.739426C0.868321 0.773096 0.861587 0.806766 0.864954 0.840436C0.868321 0.874106 0.88179 0.907776 0.905359 0.941446L1.05351 1.24448L1.53499 1.00879L1.636 1.21081L0.467648 1.7832ZM0.895257 1.31182L0.730274 1.00879C0.696604 0.941446 0.659567 0.874106 0.609062 0.874106C0.561924 0.840436 0.508052 0.840436 0.444079 0.874106C0.407042 0.907776 0.380106 0.907776 0.363271 0.941446C0.346436 0.975116 0.332968 1.00879 0.329601 1.00879C0.326234 1.04246 0.329601 1.07613 0.336335 1.1098C0.343069 1.1098 0.35317 1.14347 0.366638 1.17714L0.531621 1.51384L0.895257 1.31182Z" fill="#F7E4AF"/>
</svg>
