<svg width="2" height="3" viewBox="0 0 2 3" fill="none" xmlns="http://www.w3.org/2000/svg">
<path d="M1.24938 0.817871L1.38406 1.42393C1.4514 1.55861 1.41773 1.65962 1.38406 1.76063C1.35039 1.82797 1.28305 1.89531 1.18204 1.92898C1.1147 1.92898 1.04736 1.96265 1.01369 1.92898C0.980017 1.92898 0.946347 1.92898 0.912677 1.89531C0.879007 1.89531 0.845337 1.86164 0.845337 1.86164C0.811667 1.82797 0.811667 1.82797 0.811667 1.7943C0.811667 1.82797 0.811667 1.82797 0.811667 1.86164C0.777997 1.89531 0.777997 1.92898 0.777997 1.92898C0.744327 1.96265 0.744327 1.99632 0.710657 1.99632C0.676987 2.02999 0.643316 2.02999 0.575976 2.06366C0.508636 2.06366 0.441296 2.09733 0.373956 2.131C0.340286 2.16467 0.272946 2.19834 0.272946 2.19834L0.205606 1.96265C0.239276 1.96265 0.272946 1.92898 0.306616 1.92898C0.340286 1.92898 0.340286 1.89531 0.373956 1.89531C0.441296 1.89531 0.474966 1.86164 0.542306 1.82797C0.575976 1.82797 0.609646 1.7943 0.609646 1.76063C0.643316 1.76063 0.676987 1.72696 0.676987 1.69329C0.676987 1.65962 0.676987 1.59228 0.643316 1.55861L0.575976 1.22191L0.0372558 1.35659L0.00358582 1.15457L1.24938 0.817871ZM0.744327 1.18824L0.811667 1.55861C0.845337 1.62595 0.879007 1.65962 0.912677 1.69329C0.946347 1.72696 1.01369 1.72696 1.08103 1.72696C1.1147 1.69329 1.14837 1.69329 1.18204 1.65962C1.18204 1.65962 1.21571 1.62595 1.21571 1.59228C1.21571 1.59228 1.21571 1.55861 1.21571 1.52494C1.21571 1.49127 1.21571 1.4576 1.21571 1.4576L1.1147 1.08723L0.744327 1.18824Z" fill="#F7E4AF"/>
</svg>
