<svg width="2" height="2" viewBox="0 0 2 2" fill="none" xmlns="http://www.w3.org/2000/svg">
<path d="M0.692972 0.244629L0.894992 0.328804L0.625632 1.03251C0.591962 1.07291 0.591962 1.11668 0.558292 1.15709C0.558292 1.20086 0.558292 1.24126 0.558292 1.28167C0.558292 1.32207 0.591962 1.35911 0.625632 1.39614C0.625632 1.43318 0.692972 1.46348 0.760312 1.49042C0.827652 1.51736 0.894992 1.52746 0.928662 1.52072C0.962332 1.51399 1.02967 1.49715 1.06334 1.47359C1.06334 1.44665 1.09701 1.41298 1.13068 1.37594C1.16435 1.33554 1.16435 1.29513 1.19802 1.25473L1.46738 0.551026L1.6694 0.635201L1.36637 1.40625C1.3327 1.48369 1.29903 1.54766 1.26536 1.5948C1.19802 1.64194 1.16435 1.67897 1.09701 1.69917C1.02967 1.71938 0.962332 1.72948 0.894992 1.72274C0.827652 1.71938 0.760312 1.69917 0.692972 1.67224C0.625632 1.64194 0.558292 1.6049 0.490951 1.56449C0.457281 1.52072 0.389941 1.47022 0.389941 1.41635C0.356271 1.35911 0.322601 1.2985 0.322601 1.23116C0.322601 1.16382 0.356271 1.09311 0.389941 1.01567L0.692972 0.244629Z" fill="#F7E4AF"/>
</svg>
