<svg width="38" height="42" viewBox="0 0 38 42" fill="none" xmlns="http://www.w3.org/2000/svg">
<path d="M13.3786 10.1335C15.3679 9.80455 19.9981 9.3541 22.9159 10.1397C22.0644 7.57416 19.3516 8.53623 22.9846 10.1397C23.4936 7.94831 24.9266 3.56557 26.5862 3.56557H24.6713C24.2989 4.31384 22.7883 5.81038 19.7243 5.81038H16.8519H15.7349C14.4582 5.81038 11.8411 5.32935 11.5858 3.40522H9.99003C9.6765 3.40522 13.9829 9.9041 13.3786 10.1335Z" fill="#8C0303"/>
<path d="M16.8519 5.81038H19.7243V5.65004V4.68797H18.9264V3.47556C20.0734 1.47942 19.4043 0.993507 18.9264 1.00007H17.8094C16.4051 1.00007 17.1179 2.6035 17.6498 3.40522C17.703 3.72591 17.7775 4.39935 17.6498 4.52763C17.5221 4.6559 17.0647 4.58108 16.8519 4.52763V5.81038Z" fill="#8C0303"/>
<path fill-rule="evenodd" clip-rule="evenodd" d="M2.80896 23.7689C-0.127289 27.2323 1.15998 31.8395 2.17065 33.7102C2.38342 33.6568 2.74513 33.5819 2.48982 33.7102C2.2345 33.8385 3.12814 35.2602 3.60687 35.955C3.47921 38.5205 4.29838 38.3067 4.72392 37.8792C5.4899 40.5729 6.74526 39.3223 7.27718 38.3602C8.93681 41.5671 9.88364 39.1619 10.1496 37.5585C10.9564 37.3269 10.9307 39.0191 10.9144 40.0978C10.9081 40.5126 10.9032 40.8366 10.9475 40.9257C11.0465 41.1247 11.2685 40.8914 11.5371 40.6091C11.7013 40.4365 11.8829 40.2456 12.0646 40.124C12.4475 39.8674 12.2241 39.3757 12.0646 39.1619C10.7879 37.7188 10.3092 34.5119 11.2667 34.5119C12.0326 34.5119 12.0114 32.1602 11.905 30.9844C13.0539 30.7278 14.6178 33.1223 15.2561 34.3516L19.086 34.5119C18.9264 34.1913 21.4797 32.9085 22.5968 32.7482C23.4904 32.6199 24.7777 31.1982 25.3096 30.5033C25.3096 31.1447 25.3734 32.4275 25.6288 32.4275C25.9479 32.4275 26.1075 35.474 25.4692 36.9171C24.8309 38.3602 25.15 40.124 25.3096 40.605C25.4373 40.9898 25.7883 40.7654 25.9479 40.605V40.4447C25.9479 38.1357 26.799 36.2757 27.2245 35.6343C27.1182 37.6119 27.1288 41.1822 28.0224 39.6429C28.905 38.1228 29.5489 38.8754 29.7697 39.4606C29.7086 39.2103 30.6973 38.9451 31.214 38.8412L31.8523 37.8792C33.2566 39.0336 33.9269 36.3292 34.0864 34.8326C39.0653 29.5734 35.8418 23.4482 33.6077 21.0431C34.0332 20.562 34.3418 18.9907 32.1715 16.5534C30.0012 14.1162 25.6288 12.4379 23.7138 11.9034C19.1888 9.74377 16.6687 10.7266 14.7321 11.4819C13.9369 11.792 13.2401 12.0638 12.5433 12.0638C10.6283 12.0638 8.6602 13.5603 7.9155 14.3086C3.44729 16.2327 2.64939 21.4172 2.80896 23.7689ZM12.5433 12.3845C12.1177 12.3845 11.3305 12.4807 11.5858 12.8655C11.725 13.0753 11.8945 13.1936 12.0282 13.2869C12.2011 13.4075 12.3141 13.4864 12.2241 13.6672C12.1816 13.7526 12.1165 13.8494 12.0499 13.9484C11.8662 14.2214 11.6708 14.5116 11.905 14.6293C11.9784 14.6662 12.2292 14.754 12.5642 14.8713C13.685 15.2637 15.7476 15.9858 15.2561 16.2327C14.6178 16.5534 14.7774 17.3551 15.2561 17.5155C15.7349 17.6758 16.054 19.1189 15.7349 19.1189C15.6427 19.1189 15.7102 19.1323 15.8451 19.159C16.1775 19.2249 16.9194 19.3718 16.6923 19.6C16.437 19.8565 16.4796 20.4551 16.5328 20.7224C15.0965 21.631 12.256 23.5444 12.3837 23.9292C12.4486 24.1248 12.2761 24.3468 12.0914 24.5846C11.8218 24.9317 11.5261 25.3124 11.905 25.693C12.4156 26.2061 11.6922 26.8689 11.2667 27.1361C11.0539 27.9913 10.756 29.7016 11.2667 29.7016C11.4863 29.7016 11.6303 29.8155 11.8028 29.9518C12.1316 30.2117 12.5638 30.5533 13.8199 30.343C14.7774 29.4344 16.7562 27.6492 17.0115 27.7775C17.3307 27.9378 17.6498 25.693 17.4902 25.693C17.3307 25.693 15.2561 24.2499 15.5753 24.0896C15.8944 23.3948 16.8838 22.0051 18.2881 22.0051C19.0328 22.0051 20.5222 22.3579 20.5222 23.7689C20.5754 24.1965 20.2669 25.0837 18.6073 25.212C18.5009 26.9223 19.4052 30.343 23.8734 30.343C24.8309 30.0757 26.1713 28.8358 23.8734 26.0137C24.8947 23.7048 21.9584 22.0586 20.3627 21.5241C19.7243 21.1499 19.1179 19.5679 21.7989 16.2327C23.5557 14.0472 24.3577 13.2571 24.6719 13.0774C24.7277 13.1141 24.7807 13.1504 24.8309 13.1862C24.8675 13.0572 24.8372 12.9829 24.6719 13.0774C22.893 11.9062 18.273 10.3061 12.7029 12.5448C12.6675 12.4914 12.5862 12.3845 12.5433 12.3845ZM21.6393 31.4654C22.1499 31.8502 23.0223 31.5188 23.3947 31.3051C22.2776 30.9844 19.9158 30.1506 19.4052 29.3809C18.7669 28.4189 17.3307 28.5792 17.1711 28.7395C17.1312 28.7796 16.8721 28.9598 16.5159 29.2076C15.4463 29.9517 13.5008 31.3051 13.9795 31.3051C14.6178 31.3051 15.8944 32.1068 16.8519 32.7482C17.6179 33.2613 18.7669 32.962 19.2456 32.7482C19.8307 32.1602 21.1286 31.0806 21.6393 31.4654ZM13.3412 17.8362C12.9582 16.9382 11.6922 17.462 11.1071 17.8362C9.83045 18.3238 9.99003 19.6 10.7879 20.562C11.5858 21.5241 13.1816 20.562 13.5008 20.2413C13.8199 19.9206 13.8199 18.9586 13.3412 17.8362ZM25.4692 19.1189C26.1075 20.2298 25.2032 21.399 24.6713 21.8448C23.7138 22.0051 21.7989 21.5241 21.6393 20.7224C21.4797 19.9206 21.9584 18.6379 22.4372 18.1569C22.9159 17.6758 24.6713 17.7303 25.4692 19.1189Z" fill="#8C0303"/>
<path d="M13.3786 10.1335C15.3679 9.80455 19.9981 9.3541 22.9159 10.1397C22.0644 7.57416 19.3516 8.53623 22.9846 10.1397C23.4936 7.94831 24.9266 3.56557 26.5862 3.56557H24.6713C24.2989 4.31384 22.7883 5.81038 19.7243 5.81038M13.3786 10.1335C13.9829 9.9041 9.6765 3.40522 9.99003 3.40522M13.3786 10.1335C13.3677 10.1376 13.3553 10.1397 13.3412 10.1397C13.3535 10.1376 13.366 10.1355 13.3786 10.1335ZM19.7243 5.81038H16.8519M19.7243 5.81038V5.65004M19.7243 5.81038C17.9425 5.81038 17.3156 5.81038 16.8519 5.81038M16.8519 5.81038H15.7349M16.8519 5.81038V4.52763C17.0647 4.58108 17.5221 4.6559 17.6498 4.52763C17.7775 4.39935 17.703 3.72591 17.6498 3.40522C17.1179 2.6035 16.4051 1.00007 17.8094 1.00007M16.8519 5.81038C16.5183 5.81038 16.2691 5.81038 15.7349 5.81038M15.7349 5.81038C14.4582 5.81038 11.8411 5.32935 11.5858 3.40522M11.5858 3.40522H9.99003M11.5858 3.40522C11.1603 3.40522 10.2454 3.40522 9.99003 3.40522M19.7243 5.65004V4.68797M19.7243 5.65004C19.7243 5.39349 19.7243 4.90177 19.7243 4.68797M19.7243 4.68797H18.9264V3.47556C20.0734 1.47942 19.4043 0.993507 18.9264 1.00007M18.9264 1.00007H17.8094M18.9264 1.00007C19.1392 1.00007 19.2137 1.00007 17.8094 1.00007M16.5159 29.2076C16.5382 29.1921 16.5601 29.1769 16.5816 29.162M16.5159 29.2076C16.8721 28.9598 17.1312 28.7796 17.1711 28.7396C17.3307 28.5792 18.7669 28.4189 19.4052 29.3809C19.9158 30.1506 22.2776 30.9844 23.3947 31.3051C23.0223 31.5188 22.1499 31.8502 21.6393 31.4654C21.1286 31.0806 19.8307 32.1602 19.2456 32.7482C18.7669 32.962 17.6179 33.2613 16.8519 32.7482C15.8944 32.1068 14.6178 31.3051 13.9795 31.3051C13.5008 31.3051 15.4463 29.9517 16.5159 29.2076ZM29.7697 39.4606C29.5489 38.8754 28.905 38.1228 28.0224 39.6429C27.1288 41.1822 27.1182 37.6119 27.2245 35.6344C26.799 36.2757 25.9479 38.1357 25.9479 40.4447V40.605C25.7883 40.7654 25.4373 40.9898 25.3096 40.605C25.15 40.124 24.8309 38.3602 25.4692 36.9171C26.1075 35.474 25.9479 32.4275 25.6288 32.4275C25.3734 32.4275 25.3096 31.1447 25.3096 30.5033C24.7777 31.1982 23.4904 32.6199 22.5968 32.7482C21.4797 32.9085 18.9264 34.1913 19.086 34.5119L15.2561 34.3516C14.6178 33.1223 13.0539 30.7278 11.905 30.9844C12.0114 32.1602 12.0326 34.5119 11.2667 34.5119C10.3092 34.5119 10.7879 37.7188 12.0646 39.1619C12.2241 39.3757 12.4475 39.8674 12.0646 40.124C11.8829 40.2456 11.7013 40.4365 11.5371 40.6091C11.2685 40.8914 11.0465 41.1247 10.9475 40.9257C10.9032 40.8366 10.9081 40.5126 10.9144 40.0978C10.9307 39.0191 10.9564 37.3268 10.1496 37.5585C9.88364 39.1619 8.93681 41.5671 7.27718 38.3602C6.74526 39.3223 5.4899 40.5729 4.72392 37.8792C4.29838 38.3067 3.47921 38.5205 3.60687 35.955C3.12814 35.2602 2.2345 33.8385 2.48982 33.7102C2.74513 33.5819 2.38342 33.6568 2.17065 33.7102C1.15998 31.8395 -0.127289 27.2323 2.80896 23.7689C2.64939 21.4172 3.44729 16.2327 7.9155 14.3086C8.6602 13.5603 10.6283 12.0638 12.5433 12.0638C13.2401 12.0638 13.9369 11.792 14.7321 11.4819C16.6687 10.7266 19.1888 9.74377 23.7138 11.9034C25.6288 12.4379 30.0012 14.1162 32.1715 16.5534C34.3418 18.9907 34.0332 20.562 33.6077 21.0431C35.8418 23.4482 39.0653 29.5734 34.0864 34.8326C33.9269 36.3292 33.2566 39.0336 31.8523 37.8792L31.214 38.8412C30.6973 38.9451 29.7086 39.2103 29.7697 39.4606ZM29.7697 39.4606C29.7724 39.468 29.7752 39.4753 29.7778 39.4826C29.7742 39.4753 29.7715 39.4679 29.7697 39.4606ZM24.6719 13.0774C24.3577 13.2571 23.5557 14.0472 21.7989 16.2327C19.1179 19.5679 19.7243 21.1499 20.3627 21.5241C21.9584 22.0586 24.8947 23.7048 23.8734 26.0137C26.1713 28.8358 24.8309 30.0757 23.8734 30.343C19.4052 30.343 18.5009 26.9223 18.6073 25.212C20.2669 25.0837 20.5754 24.1965 20.5222 23.7689C20.5222 22.3579 19.0328 22.0051 18.2881 22.0051C16.8838 22.0051 15.8944 23.3948 15.5753 24.0896C15.2561 24.2499 17.3307 25.693 17.4902 25.693C17.6498 25.693 17.3307 27.9378 17.0115 27.7775C16.7562 27.6492 14.7774 29.4344 13.8199 30.343C12.5638 30.5533 12.1316 30.2117 11.8028 29.9518C11.6303 29.8155 11.4863 29.7016 11.2667 29.7016C10.756 29.7016 11.0539 27.9913 11.2667 27.1361C11.6922 26.8689 12.4156 26.2061 11.905 25.693C11.5261 25.3124 11.8218 24.9317 12.0914 24.5846C12.2761 24.3468 12.4486 24.1248 12.3837 23.9292C12.256 23.5444 15.0965 21.631 16.5328 20.7224C16.4796 20.4551 16.437 19.8565 16.6923 19.6C16.9194 19.3718 16.1775 19.2249 15.8451 19.159C15.7102 19.1323 15.6427 19.1189 15.7349 19.1189C16.054 19.1189 15.7349 17.6758 15.2561 17.5155C14.7774 17.3551 14.6178 16.5534 15.2561 16.2327C15.7476 15.9858 13.685 15.2637 12.5642 14.8713C12.2292 14.754 11.9784 14.6662 11.905 14.6293C11.6708 14.5116 11.8662 14.2214 12.0499 13.9484C12.1165 13.8494 12.1816 13.7526 12.2241 13.6672C12.3141 13.4864 12.2011 13.4075 12.0282 13.2869C11.8945 13.1936 11.725 13.0753 11.5858 12.8655C11.3305 12.4807 12.1177 12.3845 12.5433 12.3845C12.5862 12.3845 12.6675 12.4914 12.7029 12.5448C18.273 10.3061 22.893 11.9062 24.6719 13.0774ZM24.6719 13.0774C24.7277 13.1141 24.7807 13.1504 24.8309 13.1862C24.8675 13.0572 24.8372 12.9829 24.6719 13.0774ZM13.3412 17.8362C12.9582 16.9382 11.6922 17.462 11.1071 17.8362C9.83045 18.3238 9.99003 19.6 10.7879 20.562C11.5858 21.5241 13.1816 20.562 13.5008 20.2413C13.8199 19.9206 13.8199 18.9586 13.3412 17.8362ZM25.4692 19.1189C26.1075 20.2298 25.2032 21.399 24.6713 21.8448C23.7138 22.0051 21.7989 21.5241 21.6393 20.7224C21.4797 19.9206 21.9584 18.6379 22.4372 18.1569C22.9159 17.6758 24.6713 17.7303 25.4692 19.1189Z" stroke="#8C0303" stroke-linecap="round" stroke-linejoin="round"/>
</svg>
