<svg width="6" height="8" viewBox="0 0 6 8" fill="none" xmlns="http://www.w3.org/2000/svg">
<path d="M4.74644 2.55163C4.66563 2.39001 4.66563 2.2284 4.58482 2.06678C4.50401 1.90517 4.3424 1.74355 4.26159 1.66274C4.09997 1.50113 3.93836 1.42032 3.77674 1.33951C3.61513 1.2587 3.3727 1.2587 3.13028 1.2587C2.80705 1.2587 2.48381 1.33951 2.24139 1.50113C1.99896 1.58193 1.83735 1.82436 1.67573 2.06678C1.51412 2.2284 1.43331 2.55163 1.3525 2.79405C1.27169 3.11729 1.19088 3.44052 1.19088 3.68294C1.19088 4.00618 1.27169 4.32941 1.3525 4.57183C1.3525 4.89507 1.51412 5.13749 1.67573 5.37991C1.83735 5.62234 1.99896 5.78395 2.24139 5.94557C2.48381 6.10719 2.80705 6.18799 3.13028 6.18799C3.3727 6.18799 3.61513 6.10719 3.77674 6.02638C4.01917 5.94557 4.18078 5.78395 4.3424 5.70315C4.42321 5.54153 4.58482 5.29911 4.66563 5.13749C4.74644 4.89507 4.74644 4.73345 4.74644 4.49102H5.87775C5.87775 4.89507 5.79694 5.2183 5.63533 5.54153C5.47371 5.86476 5.3121 6.10719 5.06967 6.34961C4.82725 6.59204 4.50401 6.75365 4.18078 6.91527C3.85755 6.99608 3.53432 7.07688 3.13028 7.07688C2.64543 7.07688 2.24139 6.99608 1.83735 6.83446C1.51412 6.59204 1.19088 6.34961 0.867651 6.10719C0.625227 5.78395 0.463611 5.46072 0.301995 5.05668C0.140378 4.65264 0.0595703 4.16779 0.0595703 3.68294C0.0595703 3.2789 0.140378 2.79405 0.301995 2.39001C0.463611 1.98597 0.625227 1.66274 0.867651 1.33951C1.19088 1.01628 1.51412 0.773852 1.83735 0.612236C2.24139 0.45062 2.64543 0.369812 3.13028 0.369812C3.53432 0.369812 3.85755 0.45062 4.18078 0.531428C4.50401 0.612236 4.74644 0.773852 4.98886 0.935469C5.23129 1.09708 5.3929 1.33951 5.55452 1.66274C5.71614 1.90517 5.79694 2.2284 5.87775 2.55163H4.74644Z" fill="#8C0303"/>
</svg>
