<svg width="4" height="4" viewBox="0 0 4 4" fill="none" xmlns="http://www.w3.org/2000/svg">
<path d="M2.01428 0.740616C1.92539 0.740616 1.8365 0.740616 1.74761 0.740616C1.65873 0.740616 1.57792 0.740616 1.49711 0.821424C1.4163 0.821424 1.34357 0.821424 1.27893 0.902232C1.21428 0.983041 1.14963 1.06385 1.09307 1.14466C1.01226 1.30627 0.971857 1.46789 0.979938 1.62951C0.979938 1.71031 1.01226 1.87193 1.07691 1.95274C1.14155 2.11435 1.22236 2.19516 1.33549 2.27597C1.44054 2.43759 1.56176 2.51839 1.69105 2.5992C1.82034 2.68001 1.95772 2.68001 2.10317 2.76082C2.24862 2.76082 2.386 2.76082 2.51529 2.76082C2.65267 2.76082 2.77388 2.68001 2.91933 2.5992C3.00014 2.5992 3.08095 2.43759 3.16176 2.27597C3.24256 2.19516 3.24256 2.11435 3.32337 1.95274C3.32337 1.87193 3.24256 1.79112 3.24256 1.71031C3.24256 1.62951 3.16176 1.5487 3.08095 1.46789C3.00014 1.38708 2.91933 1.30627 2.83852 1.22546L3.08095 0.740616C3.24256 0.821424 3.40418 0.983041 3.48499 1.06385C3.5658 1.22546 3.6466 1.38708 3.72741 1.5487C3.72741 1.71031 3.72741 1.87193 3.72741 2.03355C3.72741 2.19516 3.6466 2.35678 3.5658 2.51839C3.48499 2.76082 3.32337 2.92243 3.16176 3.00324C3.00014 3.16486 2.81428 3.24567 2.62034 3.24567C2.4264 3.32647 2.23246 3.32647 2.02236 3.24567C1.81226 3.24567 1.61024 3.16486 1.4163 3.08405C1.22236 2.92243 1.05266 2.84163 0.915291 2.68001C0.769836 2.51839 0.664786 2.35678 0.60014 2.19516C0.527413 1.95274 0.50317 1.79112 0.511251 1.5487C0.519331 1.38708 0.583978 1.14466 0.697109 0.983041C0.777918 0.821424 0.882968 0.659808 0.996099 0.579C1.10923 0.417384 1.23852 0.336576 1.3759 0.336576C1.51327 0.255768 1.65873 0.255768 1.80418 0.255768C1.95772 0.255768 2.10317 0.255768 2.26479 0.336576L2.01428 0.740616Z" fill="#8C0303"/>
</svg>
