<svg width="5" height="5" viewBox="0 0 5 5" fill="none" xmlns="http://www.w3.org/2000/svg">
<path d="M2.18068 4.51981L1.29179 3.55012C1.13018 3.3885 0.968563 3.22688 0.887754 3.06527C0.806946 2.90365 0.806946 2.66123 0.887754 2.49961C0.887754 2.338 0.968563 2.17638 1.04937 2.01476C1.13018 1.77234 1.29179 1.61072 1.3726 1.52991C1.53422 1.3683 1.69584 1.20668 1.85745 1.12587C2.01907 1.04507 2.26149 0.964258 2.42311 0.964258C2.58472 0.88345 2.74634 0.964258 2.98876 1.04507C3.15038 1.04507 3.312 1.20668 3.47361 1.3683L4.3625 2.25719L2.18068 4.51981ZM3.71604 2.17638L3.312 1.85315C3.15038 1.69153 2.98876 1.61072 2.90796 1.52991C2.74634 1.44911 2.58472 1.44911 2.50392 1.44911C2.3423 1.44911 2.26149 1.52991 2.09988 1.61072C2.01907 1.69153 1.93826 1.77234 1.77664 1.85315C1.69584 2.01476 1.61503 2.09557 1.53422 2.25719C1.45341 2.338 1.3726 2.4188 1.3726 2.58042C1.3726 2.74204 1.3726 2.82284 1.45341 2.98446C1.45341 3.14608 1.61503 3.22688 1.69584 3.3885L2.09988 3.79254L3.71604 2.17638Z" fill="#8C0303"/>
</svg>
