<svg width="4" height="4" viewBox="0 0 4 4" fill="none" xmlns="http://www.w3.org/2000/svg">
<path d="M3.40318 3.2296L3.07995 3.24576L2.91833 2.88213C2.83753 3.05182 2.67591 3.18112 2.51429 3.25384C2.35268 3.32657 2.19106 3.36698 2.02945 3.37506C1.78702 3.39122 1.5446 3.35889 1.38298 3.27809C1.22137 3.20536 1.05975 3.09223 0.898133 2.95485C0.736517 2.81748 0.655709 2.64778 0.5749 2.45384C0.494092 2.2599 0.494092 2.0498 0.413284 1.83162C0.413284 1.61344 0.494092 1.40334 0.494092 1.20132C0.5749 0.999298 0.655709 0.821521 0.817325 0.667985C0.898133 0.51445 1.05975 0.385157 1.22137 0.288187C1.38298 0.191217 1.62541 0.134652 1.86783 0.126571C2.02945 0.11849 2.19106 0.134652 2.35268 0.166975C2.51429 0.207379 2.5951 0.263945 2.75672 0.344753C2.91833 0.425561 2.99914 0.530612 3.07995 0.659905C3.16076 0.789197 3.24157 0.942733 3.24157 1.11243L2.67591 1.14475C2.67591 1.04778 2.67591 0.958894 2.5951 0.878086C2.5951 0.797278 2.51429 0.740712 2.43349 0.692228C2.35268 0.643743 2.27187 0.61142 2.19106 0.587177C2.11025 0.562935 1.94864 0.554854 1.86783 0.562935C1.70621 0.571016 1.5446 0.61142 1.46379 0.684147C1.38298 0.756874 1.22137 0.853844 1.14056 0.966975C1.14056 1.08011 1.05975 1.2094 1.05975 1.35485C0.978941 1.50031 0.978941 1.64576 0.978941 1.79122C0.978941 1.93667 1.05975 2.08213 1.05975 2.22758C1.14056 2.36495 1.22137 2.49425 1.30217 2.5993C1.38298 2.70435 1.46379 2.79324 1.5446 2.8498C1.70621 2.90637 1.86783 2.93869 2.02945 2.92253C2.11025 2.91445 2.27187 2.89021 2.35268 2.8498C2.51429 2.80132 2.5951 2.74475 2.67591 2.66394C2.67591 2.58314 2.75672 2.49425 2.75672 2.38112C2.83753 2.26799 2.83753 2.15485 2.83753 2.01748L2.02945 2.06596L1.94864 1.65384L3.32237 1.58112L3.40318 3.2296Z" fill="#8C0303"/>
</svg>
