<svg width="4" height="4" viewBox="0 0 4 4" fill="none" xmlns="http://www.w3.org/2000/svg">
<path d="M0.216033 1.46541C0.232194 1.22298 0.28876 0.980559 0.39381 0.818943C0.49078 0.657327 0.620073 0.495711 0.781689 0.334095C0.935224 0.253286 1.12108 0.172478 1.3231 0.0916703C1.52512 0.0916703 1.73522 0.0108622 1.95341 0.0916703C2.17967 0.0916703 2.38169 0.0916703 2.57563 0.172478C2.76957 0.253286 2.93118 0.414903 3.07664 0.495711C3.21401 0.657327 3.31906 0.818943 3.39179 1.06137C3.46452 1.22298 3.48876 1.46541 3.4726 1.62702C3.45644 1.86945 3.39987 2.11187 3.3029 2.27349C3.20593 2.4351 3.07664 2.59672 2.9231 2.67753C2.76957 2.83915 2.58371 2.91995 2.38169 3.00076C2.17967 3.00076 1.96957 3.08157 1.74331 3.00076C1.52512 3.00076 1.31502 3.00076 1.12108 2.91995C0.927144 2.83915 0.765527 2.67753 0.620073 2.51591C0.482699 2.4351 0.377649 2.27349 0.296841 2.03106C0.232194 1.86945 0.199871 1.62702 0.216033 1.46541ZM0.660477 1.46541C0.652396 1.62702 0.668558 1.78864 0.733204 1.86945C0.78977 2.03106 0.870578 2.11187 0.983709 2.19268C1.08876 2.27349 1.20997 2.3543 1.35543 2.4351C1.4928 2.4351 1.63825 2.4351 1.78371 2.51591C1.92916 2.51591 2.07462 2.51591 2.22007 2.4351C2.36553 2.4351 2.49482 2.3543 2.61603 2.3543C2.72916 2.27349 2.82613 2.19268 2.90694 2.03106C2.97967 1.95026 3.02815 1.78864 3.03623 1.62702C3.04432 1.46541 3.02815 1.30379 2.96351 1.22298C2.90694 1.06137 2.82613 0.980559 2.713 0.899751C2.60795 0.818943 2.48674 0.738135 2.34128 0.657327C2.20391 0.657327 2.05846 0.657327 1.913 0.576519C1.76755 0.576519 1.62209 0.576519 1.47664 0.657327C1.33118 0.657327 1.20189 0.738135 1.08068 0.738135C0.967548 0.818943 0.870578 0.899751 0.78977 1.06137C0.717043 1.14218 0.676639 1.30379 0.660477 1.46541Z" fill="#8C0303"/>
</svg>
