<svg width="4" height="4" viewBox="0 0 4 4" fill="none" xmlns="http://www.w3.org/2000/svg">
<path d="M0.847637 0.311695C1.09006 0.190483 1.25168 0.109675 1.4941 0.085433C1.65572 0.0611906 1.89814 0.0773521 2.05976 0.133918C2.22137 0.190483 2.38299 0.287453 2.54461 0.416746C2.70622 0.546039 2.86784 0.707655 2.94865 0.893514C3.11026 1.07937 3.19107 1.28139 3.27188 1.48341C3.27188 1.68543 3.27188 1.91978 3.27188 2.08139C3.27188 2.24301 3.19107 2.48543 3.02946 2.64705C2.94865 2.80866 2.78703 2.97028 2.62541 3.05109C2.38299 3.21271 2.22137 3.29351 1.97895 3.29351C1.81733 3.29351 1.57491 3.29351 1.41329 3.29351C1.25168 3.21271 1.09006 3.1319 0.928445 2.97028C0.766829 2.80867 0.605212 2.64705 0.443596 2.48543C0.362788 2.32382 0.28198 2.08139 0.201172 1.91978C0.201172 1.70968 0.201172 1.50765 0.201172 1.31372C0.201172 1.11978 0.28198 0.933917 0.362788 0.76422C0.524404 0.578362 0.68602 0.432907 0.847637 0.311695ZM1.09006 0.683412C0.928445 0.772301 0.847637 0.877352 0.766829 0.998564C0.68602 1.11978 0.68602 1.24907 0.68602 1.38644C0.68602 1.52382 0.68602 1.66119 0.766829 1.83897C0.766829 1.91978 0.847637 2.08139 0.928445 2.1622C1.00925 2.32382 1.09006 2.40462 1.25168 2.56624C1.33249 2.64705 1.41329 2.72786 1.57491 2.80867C1.65572 2.80867 1.81733 2.88947 1.97895 2.80867C2.14057 2.80867 2.22137 2.80867 2.38299 2.72786C2.54461 2.64705 2.62541 2.48543 2.70622 2.40462C2.78703 2.24301 2.78703 2.1622 2.78703 2.00058C2.78703 1.83897 2.78703 1.71776 2.70622 1.58038C2.70622 1.44301 2.62541 1.30563 2.54461 1.18442C2.4638 1.05513 2.38299 0.941998 2.30218 0.845028C2.14057 0.748059 2.05976 0.667251 1.89814 0.610686C1.81733 0.55412 1.65572 0.529877 1.4941 0.537958C1.41329 0.546039 1.25168 0.594523 1.09006 0.683412Z" fill="#8C0303"/>
</svg>
