<svg width="4" height="4" viewBox="0 0 4 4" fill="none" xmlns="http://www.w3.org/2000/svg">
<path d="M2.07077 0.674007C2.31319 0.617441 2.47481 0.60936 2.71723 0.649764C2.87885 0.690168 3.04046 0.770976 3.20208 0.884108C3.3637 0.997239 3.52531 1.14269 3.60612 1.32047C3.76774 1.49825 3.84854 1.69219 3.92935 1.91037C3.92935 2.12855 3.92935 2.33865 3.92935 2.54875C3.92935 2.75886 3.84854 2.94471 3.76774 3.12249C3.68693 3.30027 3.60612 3.44572 3.4445 3.57502C3.28289 3.70431 3.04046 3.7932 2.79804 3.84976C2.63642 3.90633 2.394 3.91441 2.15157 3.87401C1.98996 3.8336 1.82834 3.76088 1.66673 3.64774C1.50511 3.53461 1.34349 3.38916 1.26269 3.21138C1.10107 3.0336 1.02026 2.83966 1.02026 2.62148C0.939453 2.4033 0.939453 2.1932 0.939453 1.9831C0.939453 1.773 1.02026 1.58714 1.10107 1.40936C1.18188 1.23158 1.34349 1.08613 1.50511 0.956835C1.66673 0.819461 1.82834 0.730572 2.07077 0.674007ZM2.15157 1.11037C1.98996 1.15077 1.82834 1.21542 1.74753 1.31239C1.66673 1.40936 1.58592 1.51441 1.50511 1.6437C1.50511 1.773 1.4243 1.91037 1.4243 2.05582C1.4243 2.20128 1.50511 2.34673 1.50511 2.49219C1.50511 2.63764 1.58592 2.77502 1.66673 2.90431C1.74753 3.0336 1.82834 3.14673 1.90915 3.23562C1.98996 3.32451 2.15157 3.38916 2.23238 3.42956C2.394 3.46997 2.55561 3.46189 2.71723 3.42148C2.87885 3.38108 2.95966 3.31643 3.12127 3.21946C3.20208 3.12249 3.28289 3.01744 3.3637 2.88815C3.3637 2.75886 3.3637 2.62148 3.3637 2.47603C3.3637 2.33057 3.3637 2.18512 3.3637 2.03966C3.28289 1.89421 3.28289 1.75683 3.20208 1.62754C3.12127 1.49825 3.04046 1.38512 2.95966 1.29623C2.87885 1.20734 2.71723 1.14269 2.63642 1.10229C2.47481 1.06997 2.31319 1.06997 2.15157 1.11037Z" fill="#8C0303"/>
</svg>
