<svg width="4" height="4" viewBox="0 0 4 4" fill="none" xmlns="http://www.w3.org/2000/svg">
<path d="M3.74649 2.97466C3.66568 3.13628 3.58487 3.3787 3.42326 3.45951C3.26164 3.62113 3.10002 3.70194 2.8576 3.70194C2.69598 3.78274 2.45356 3.78274 2.29194 3.78274C2.04952 3.78274 1.8879 3.70194 1.64548 3.62113C1.48386 3.54032 1.24144 3.3787 1.16063 3.21709C0.999014 3.05547 0.837397 2.89385 0.756589 2.73224C0.675781 2.57062 0.675781 2.40901 0.675781 2.16658C0.675781 2.00497 0.756589 1.76254 0.837397 1.52012C0.918205 1.3585 1.07982 1.19688 1.24144 1.03527C1.40305 0.873652 1.56467 0.792844 1.72629 0.792844C1.8879 0.712036 2.13033 0.712036 2.37275 0.712036C2.53437 0.792844 2.77679 0.792844 2.93841 0.95446C3.18083 1.03527 3.34245 1.11608 3.50406 1.27769C3.58487 1.43931 3.74649 1.60093 3.8273 1.76254C3.9081 1.92416 3.9081 2.16658 3.9081 2.3282C3.9081 2.57062 3.9081 2.73224 3.74649 2.97466ZM3.34245 2.73224C3.42326 2.65143 3.50406 2.48981 3.50406 2.3282C3.50406 2.16658 3.42326 2.08577 3.34245 1.92416C3.26164 1.84335 3.18083 1.76254 3.10002 1.68173C2.93841 1.52012 2.8576 1.43931 2.69598 1.43931C2.61518 1.3585 2.45356 1.27769 2.29194 1.27769C2.13033 1.19688 2.04952 1.19688 1.8879 1.27769C1.72629 1.27769 1.64548 1.3585 1.48386 1.3585C1.40305 1.43931 1.32225 1.60093 1.24144 1.76254C1.16063 1.92416 1.16063 2.00497 1.16063 2.16658C1.16063 2.3282 1.16063 2.40901 1.24144 2.57062C1.32225 2.65143 1.40305 2.81305 1.48386 2.89385C1.64548 2.97466 1.72629 3.05547 1.8879 3.13628C2.04952 3.13628 2.13033 3.21709 2.29194 3.21709C2.45356 3.2979 2.61518 3.2979 2.69598 3.2979C2.8576 3.21709 3.01922 3.21709 3.10002 3.13628C3.18083 3.05547 3.34245 2.89385 3.34245 2.73224Z" fill="#8C0303"/>
</svg>
