<svg width="4" height="5" viewBox="0 0 4 5" fill="none" xmlns="http://www.w3.org/2000/svg">
<path d="M2.84758 3.88713L2.60515 4.12956L2.20111 3.65279C2.0395 3.69319 1.95869 3.71743 1.79707 3.72552C1.71626 3.7336 1.55465 3.71744 1.47384 3.69319C1.23142 3.64471 0.988991 3.5639 0.827375 3.44269C0.665759 3.32148 0.584951 3.17602 0.423335 3.00632C0.342527 2.83663 0.261719 2.65077 0.261719 2.44067C0.261719 2.23057 0.261719 2.02047 0.261719 1.80228C0.342527 1.5841 0.423335 1.39016 0.504143 1.2043C0.665759 1.02653 0.746567 0.87299 0.908183 0.751778C1.0698 0.630566 1.23142 0.549758 1.47384 0.493192C1.63546 0.444707 1.87788 0.444707 2.0395 0.485111C2.28192 0.533596 2.52434 0.614404 2.68596 0.735617C2.84758 0.856829 2.92839 1.00228 3.09 1.17198C3.17081 1.34168 3.25162 1.52754 3.25162 1.73764C3.25162 1.94774 3.25162 2.15784 3.25162 2.37602C3.17081 2.48107 3.17081 2.58612 3.09 2.69117C3.09 2.79622 3.00919 2.89319 3.00919 2.99016C2.92839 3.08713 2.84758 3.17602 2.76677 3.25683C2.76677 3.33764 2.68596 3.41036 2.52434 3.46693L2.84758 3.88713ZM1.63546 2.91743L1.95869 2.67501L2.28192 3.07097C2.36273 2.974 2.44354 2.85279 2.52434 2.71541C2.60515 2.57804 2.68596 2.42451 2.68596 2.27097C2.68596 2.12552 2.68596 1.98006 2.68596 1.83461C2.68596 1.68915 2.68596 1.55178 2.60515 1.43057C2.60515 1.30935 2.52434 1.19622 2.36273 1.10733C2.28192 1.01844 2.1203 0.953798 1.95869 0.921475C1.79707 0.889152 1.71626 0.897233 1.55465 0.937637C1.39303 0.978041 1.31222 1.05077 1.23142 1.13966C1.0698 1.23663 0.988991 1.34976 0.988991 1.47905C0.908183 1.60834 0.827375 1.7538 0.827375 1.89925C0.827375 2.04471 0.746567 2.19016 0.827375 2.33562C0.827375 2.48107 0.827375 2.61844 0.908183 2.73966C0.908183 2.86087 0.988991 2.974 1.15061 3.06289C1.23142 3.15178 1.39303 3.21643 1.55465 3.24875C1.55465 3.25683 1.63546 3.26491 1.71626 3.26491C1.79707 3.26491 1.79707 3.25683 1.87788 3.24067L1.63546 2.91743Z" fill="#8C0303"/>
</svg>
