<svg width="4" height="5" viewBox="0 0 4 5" fill="none" xmlns="http://www.w3.org/2000/svg">
<path d="M0.923698 4.18543L0.261072 2.8925C0.107536 2.56927 0.0590517 2.32685 0.115617 2.08442C0.172183 1.842 0.317638 1.68038 0.560062 1.59957C0.689355 1.51877 0.810566 1.51877 0.915617 1.43796C1.02067 1.43796 1.11764 1.51877 1.19845 1.51877C1.27925 1.51877 1.3439 1.51877 1.39238 1.59957C1.44087 1.59957 1.47319 1.68038 1.49744 1.68038H1.50552C1.48935 1.68038 1.48127 1.59957 1.48127 1.51877C1.48127 1.51877 1.48935 1.43796 1.5136 1.35715C1.53784 1.27634 1.57824 1.19553 1.64289 1.19553C1.69946 1.11473 1.78834 1.03392 1.8934 0.95311C2.05501 0.872302 2.20047 0.791494 2.32168 0.710686C2.44289 0.629878 2.5237 0.54907 2.54794 0.468262L2.80653 0.95311C2.76612 1.03392 2.70956 1.11473 2.63683 1.11473C2.5641 1.19553 2.49946 1.19553 2.42673 1.27634C2.29744 1.35715 2.19238 1.35715 2.11158 1.43796C2.03077 1.51877 1.96612 1.59957 1.92572 1.68038C1.88531 1.76119 1.86915 1.842 1.87723 1.92281C1.88531 2.00362 1.91764 2.08442 1.9742 2.16523L2.32976 2.8925L3.48531 2.32685L3.72774 2.8117L0.923698 4.18543ZM1.94996 3.05412L1.554 2.32685C1.47319 2.16523 1.3843 2.00362 1.26309 2.00362C1.14996 1.92281 1.02067 1.92281 0.867132 2.00362C0.778243 2.08442 0.713597 2.08442 0.673193 2.16523C0.632789 2.24604 0.600465 2.32685 0.592384 2.32685C0.584304 2.40766 0.592385 2.48846 0.608546 2.56927C0.624708 2.56927 0.648951 2.65008 0.681274 2.73089L1.07723 3.53897L1.94996 3.05412Z" fill="#8C0303"/>
</svg>
