<svg width="5" height="4" viewBox="0 0 5 4" fill="none" xmlns="http://www.w3.org/2000/svg">
<path d="M3.79849 0.458893L4.12173 1.91344C4.28334 2.23667 4.20253 2.47909 4.12173 2.72152C4.04092 2.88314 3.8793 3.04475 3.63688 3.12556C3.47526 3.12556 3.31364 3.20637 3.23284 3.12556C3.15203 3.12556 3.07122 3.12556 2.99041 3.04475C2.9096 3.04475 2.8288 2.96394 2.8288 2.96394C2.74799 2.88314 2.74799 2.88314 2.74799 2.80233C2.74799 2.88314 2.74799 2.88314 2.74799 2.96394C2.66718 3.04475 2.66718 3.12556 2.66718 3.12556C2.58637 3.20637 2.58637 3.28718 2.50556 3.28718C2.42476 3.36798 2.34395 3.36798 2.18233 3.44879C2.02072 3.44879 1.8591 3.5296 1.69748 3.61041C1.61667 3.69122 1.45506 3.77202 1.45506 3.77202L1.29344 3.20637C1.37425 3.20637 1.45506 3.12556 1.53587 3.12556C1.61667 3.12556 1.61667 3.04475 1.69748 3.04475C1.8591 3.04475 1.93991 2.96394 2.10152 2.88314C2.18233 2.88314 2.26314 2.80233 2.26314 2.72152C2.34395 2.72152 2.42476 2.64071 2.42476 2.5599C2.42476 2.47909 2.42476 2.31748 2.34395 2.23667L2.18233 1.42859L0.889402 1.75182L0.808594 1.26697L3.79849 0.458893ZM2.58637 1.34778L2.74799 2.23667C2.8288 2.39829 2.9096 2.47909 2.99041 2.5599C3.07122 2.64071 3.23284 2.64071 3.39445 2.64071C3.47526 2.5599 3.55607 2.5599 3.63688 2.47909C3.63688 2.47909 3.71768 2.39829 3.71768 2.31748C3.71768 2.31748 3.71768 2.23667 3.71768 2.15586C3.71768 2.07505 3.71768 1.99425 3.71768 1.99425L3.47526 1.10536L2.58637 1.34778Z" fill="#8C0303"/>
</svg>
