<svg width="4" height="4" viewBox="0 0 4 4" fill="none" xmlns="http://www.w3.org/2000/svg">
<path d="M1.46311 0.133881L1.94796 0.335901L1.30149 2.02479C1.22068 2.12176 1.22068 2.22681 1.13988 2.32378C1.13988 2.42883 1.13988 2.5258 1.13988 2.62277C1.13988 2.71974 1.22068 2.80863 1.30149 2.89752C1.30149 2.98641 1.46311 3.05913 1.62472 3.12378C1.78634 3.18843 1.94796 3.21267 2.02876 3.19651C2.10957 3.18035 2.27119 3.13994 2.352 3.08338C2.352 3.01873 2.4328 2.93792 2.51361 2.84903C2.59442 2.75206 2.59442 2.65509 2.67523 2.55812L3.32169 0.869234L3.80654 1.07125L3.07927 2.92176C2.99846 3.10762 2.91765 3.26115 2.83684 3.37429C2.67523 3.48742 2.59442 3.57631 2.4328 3.62479C2.27119 3.67327 2.10957 3.69752 1.94796 3.68136C1.78634 3.67327 1.62472 3.62479 1.46311 3.56014C1.30149 3.48742 1.13988 3.39853 0.978259 3.30156C0.897451 3.19651 0.735835 3.07529 0.735835 2.946C0.655027 2.80863 0.574219 2.66317 0.574219 2.50156C0.574219 2.33994 0.655027 2.17024 0.735835 1.98439L1.46311 0.133881Z" fill="#8C0303"/>
</svg>
